<svg width="18" height="18" viewBox="0 0 18 18" fill="none" xmlns="http://www.w3.org/2000/svg">
<path d="M16 9C16 12.866 12.866 16 9 16C5.13401 16 2 12.866 2 9C2 5.13401 5.13401 2 9 2C12.866 2 16 5.13401 16 9Z" stroke="black" stroke-linecap="round" stroke-linejoin="round"/>
<mask id="path-2-inside-1" fill="white">
<path d="M9 4.5V9L12 10.5"/>
</mask>
<path d="M10 4.5C10 3.94772 9.55228 3.5 9 3.5C8.44772 3.5 8 3.94772 8 4.5H10ZM9 9H8C8 9.37877 8.214 9.72504 8.55279 9.89443L9 9ZM11.5528 11.3944C12.0468 11.6414 12.6474 11.4412 12.8944 10.9472C13.1414 10.4532 12.9412 9.85256 12.4472 9.60557L11.5528 11.3944ZM8 4.5V9H10V4.5H8ZM8.55279 9.89443L11.5528 11.3944L12.4472 9.60557L9.44721 8.10557L8.55279 9.89443Z" fill="black" mask="url(#path-2-inside-1)"/>
</svg>
