<svg width="61" height="61" viewBox="0 0 61 61" fill="none" xmlns="http://www.w3.org/2000/svg">
<path d="M43.2084 5.08325H17.7917C10.7731 5.08325 5.08337 10.773 5.08337 17.7916V43.2083C5.08337 50.2269 10.7731 55.9166 17.7917 55.9166H43.2084C50.227 55.9166 55.9167 50.2269 55.9167 43.2083V17.7916C55.9167 10.773 50.227 5.08325 43.2084 5.08325Z" fill="white" stroke="#00529A" stroke-width="2" stroke-linecap="round" stroke-linejoin="round"/>
<path d="M40.6666 28.8985C40.9803 31.0138 40.619 33.1742 39.6341 35.0723C38.6492 36.9704 37.0909 38.5096 35.1807 39.471C33.2706 40.4325 31.106 40.7671 28.9947 40.4274C26.8835 40.0876 24.9331 39.0908 23.421 37.5787C21.9089 36.0666 20.9121 34.1163 20.5724 32.005C20.2326 29.8937 20.5673 27.7291 21.5287 25.819C22.4901 23.9089 24.0293 22.3505 25.9275 21.3657C27.8256 20.3808 29.9859 20.0195 32.1012 20.3331C34.2589 20.6531 36.2564 21.6585 37.7988 23.2009C39.3412 24.7433 40.3467 26.7409 40.6666 28.8985Z" fill="#00529A" stroke="#00529A" stroke-width="2" stroke-linecap="round" stroke-linejoin="round"/>
</svg>
