<svg width="18" height="18" viewBox="0 0 18 18" fill="none" xmlns="http://www.w3.org/2000/svg">
<path d="M15.25 7.5C15.25 9.92403 13.6796 12.2396 12.012 13.9999C11.1884 14.8692 10.3632 15.58 9.74322 16.0737C9.43521 16.319 9.17888 16.5098 9 16.6391C8.82112 16.5098 8.56479 16.319 8.25678 16.0737C7.63683 15.58 6.81156 14.8692 5.98798 13.9999C4.32037 12.2396 2.75 9.92403 2.75 7.5C2.75 5.8424 3.40848 4.25268 4.58058 3.08058C5.75268 1.90848 7.3424 1.25 9 1.25C10.6576 1.25 12.2473 1.90848 13.4194 3.08058C14.5915 4.25268 15.25 5.8424 15.25 7.5Z" stroke="black" stroke-linecap="round" stroke-linejoin="round"/>
<path d="M10.75 7.5C10.75 8.4665 9.9665 9.25 9 9.25C8.0335 9.25 7.25 8.4665 7.25 7.5C7.25 6.5335 8.0335 5.75 9 5.75C9.9665 5.75 10.75 6.5335 10.75 7.5Z" stroke="black" stroke-linecap="round" stroke-linejoin="round"/>
</svg>
