<svg width="61" height="61" viewBox="0 0 61 61" fill="none" xmlns="http://www.w3.org/2000/svg">
<path d="M58.4583 7.62468C56.0244 9.34152 53.3295 10.6546 50.4775 11.5134C48.9467 9.75335 46.9123 8.50585 44.6495 7.93966C42.3867 7.37346 40.0045 7.51588 37.8252 8.34767C35.646 9.17945 33.7747 10.6604 32.4646 12.5904C31.1545 14.5203 30.4687 16.806 30.5 19.1384V21.6801C26.0333 21.7959 21.6074 20.8053 17.6163 18.7964C13.6252 16.7876 10.1928 13.8229 7.62496 10.1663C7.62496 10.1663 -2.54171 33.0413 20.3333 43.208C15.0988 46.7612 8.86315 48.5428 2.54163 48.2913C25.4166 60.9997 53.375 48.2913 53.375 19.0622C53.3726 18.3542 53.3045 17.648 53.1716 16.9526C55.7657 14.3944 57.5962 11.1645 58.4583 7.62468Z" fill="#00529A" stroke="#00529A" stroke-width="2" stroke-linecap="round" stroke-linejoin="round"/>
</svg>
